<?xml version="1.0" encoding="UTF-8"?>
<!DOCTYPE svg PUBLIC "-//W3C//DTD SVG 1.1//EN"
    "http://www.w3.org/Graphics/SVG/1.1/DTD/svg11.dtd"><svg xmlns="http://www.w3.org/2000/svg" height="141.1765" stroke-opacity="1" viewBox="0 0 400 141" font-size="1" width="400.0000" xmlns:xlink="http://www.w3.org/1999/xlink" stroke="rgb(0,0,0)" version="1.1"><defs></defs><g stroke-linejoin="miter" stroke-opacity="1.0" fill-opacity="1.0" stroke="rgb(0,0,0)" stroke-width="0.0" fill="rgb(245,245,245)" stroke-linecap="butt" stroke-miterlimit="10.0"><path d="M 381.8182,134.7594 l -0.0000,-128.3422 h -363.6364 l -0.0000,128.3422 Z"/></g><g stroke-linejoin="miter" stroke-opacity="1.0" fill-opacity="0.0" stroke="rgb(0,0,0)" stroke-width="0.9505416412576073" fill="rgb(0,0,0)" stroke-linecap="butt" stroke-miterlimit="10.0"><path d="M 200.0000,24.0642 l 21.3904,21.3904 "/></g><g stroke-linejoin="miter" stroke-opacity="1.0" fill-opacity="0.0" stroke="rgb(0,0,0)" stroke-width="0.9505416412576073" fill="rgb(0,0,0)" stroke-linecap="butt" stroke-miterlimit="10.0"><path d="M 200.0000,24.0642 l -21.3904,21.3904 "/></g><g stroke-linejoin="miter" stroke-opacity="1.0" fill-opacity="1.0" stroke="rgb(0,0,0)" stroke-width="0.9505416412576073" fill="rgb(0,128,0)" stroke-linecap="butt" stroke-miterlimit="10.0"><path d="M 237.4332,49.1979 v -7.4866 c 0.0000,-1.7720 -1.4365,-3.2086 -3.2086 -3.2086h -25.6684 c -1.7720,-0.0000 -3.2086,1.4365 -3.2086 3.2086v 7.4866 c -0.0000,1.7720 1.4365,3.2086 3.2086 3.2086h 25.6684 c 1.7720,0.0000 3.2086,-1.4365 3.2086 -3.2086Z"/></g><g stroke-linejoin="miter" stroke-opacity="1.0" fill-opacity="1.0" font-size="10.695187165775401px" stroke="rgb(0,0,0)" stroke-width="0.9505416412576073" fill="rgb(0,0,0)" stroke-linecap="butt" stroke-miterlimit="10.0"><text dominant-baseline="middle" transform="matrix(1.0000,0.0000,0.0000,1.0000,221.3904,45.4545)" stroke="none" text-anchor="middle">2</text></g><g stroke-linejoin="miter" stroke-opacity="1.0" fill-opacity="1.0" stroke="rgb(0,0,0)" stroke-width="0.9505416412576073" fill="rgb(0,128,0)" stroke-linecap="butt" stroke-miterlimit="10.0"><path d="M 194.6524,49.1979 v -7.4866 c 0.0000,-1.7720 -1.4365,-3.2086 -3.2086 -3.2086h -25.6684 c -1.7720,-0.0000 -3.2086,1.4365 -3.2086 3.2086v 7.4866 c -0.0000,1.7720 1.4365,3.2086 3.2086 3.2086h 25.6684 c 1.7720,0.0000 3.2086,-1.4365 3.2086 -3.2086Z"/></g><g stroke-linejoin="miter" stroke-opacity="1.0" fill-opacity="1.0" font-size="10.695187165775401px" stroke="rgb(0,0,0)" stroke-width="0.9505416412576073" fill="rgb(0,0,0)" stroke-linecap="butt" stroke-miterlimit="10.0"><text dominant-baseline="middle" transform="matrix(1.0000,0.0000,0.0000,1.0000,178.6096,45.4545)" stroke="none" text-anchor="middle">1</text></g><g stroke-linejoin="miter" stroke-opacity="1.0" fill-opacity="1.0" stroke="rgb(0,0,0)" stroke-width="0.9505416412576073" fill="rgb(0,128,0)" stroke-linecap="butt" stroke-miterlimit="10.0"><path d="M 216.0428,27.8075 v -7.4866 c 0.0000,-1.7720 -1.4365,-3.2086 -3.2086 -3.2086h -25.6684 c -1.7720,-0.0000 -3.2086,1.4365 -3.2086 3.2086v 7.4866 c -0.0000,1.7720 1.4365,3.2086 3.2086 3.2086h 25.6684 c 1.7720,0.0000 3.2086,-1.4365 3.2086 -3.2086Z"/></g><g stroke-linejoin="miter" stroke-opacity="1.0" fill-opacity="1.0" font-size="10.695187165775401px" stroke="rgb(0,0,0)" stroke-width="0.9505416412576073" fill="rgb(0,0,0)" stroke-linecap="butt" stroke-miterlimit="10.0"><text dominant-baseline="middle" transform="matrix(1.0000,0.0000,0.0000,1.0000,200.0000,24.0642)" stroke="none" text-anchor="middle">0</text></g></svg>