<svg xmlns="http://www.w3.org/2000/svg" width="171" height="33" viewBox="0 0 171 33">
  <g fill="none" fill-rule="evenodd" transform="translate(-5)">
    <rect width="171" height="33" x="5" fill="#5D6DBE" rx="3"/>
    <path stroke="#FFF" stroke-width="2" d="M82.6272149,3.40637853 C77.387716,3.56846094 73.1802198,8.92090827 73.1802198,15.5 C73.1802198,22.0790917 77.387716,27.4315391 82.6272149,27.5936215 C81.1779639,28.4937791 79.5440353,29 77.8153846,29 C71.8422126,29 67,22.9558441 67,15.5 C67,8.04415588 71.8422126,2 77.8153846,2 C79.5440353,2 81.1779639,2.50622095 82.6272149,3.40637853 Z"/>
    <text fill="#FFF" font-family="Krungthep" font-size="24" font-weight="bold" letter-spacing=".551">
      <tspan x="13.057" y="25">BIG MOON</tspan>
    </text>
    <path stroke="#FFF" stroke-width="2" d="M14 26L70.2668693 26M14 7L70.2668693 7M76.9316525 25L167.725917 25M75.9316525 7L166.725917 7"/>
  </g>
</svg>
